<?xml version="1.0" encoding="utf-8"?>
<!-- Generator: Adobe Illustrator 22.1.0, SVG Export Plug-In . SVG Version: 6.00 Build 0)  -->
<svg version="1.1" id="Layer_1" xmlns="http://www.w3.org/2000/svg" xmlns:xlink="http://www.w3.org/1999/xlink" x="0px" y="0px"
	 viewBox="0 0 78 79" style="enable-background:new 0 0 78 79;" xml:space="preserve">
<style type="text/css">
	.st0{display:none;fill:#FFFFFF;}
	.st1{display:none;}
	.st2{display:inline;fill:#FFFFFF;}
	.st3{display:inline;}
	.st4{fill:#EEF0F2;}
	.st5{fill:#FFFFFF;}
	.st6{fill:#E7ECEB;}
</style>
<rect x="-0.1" y="0.3" class="st0" width="78" height="78"/>
<path d="M40,10.9L44.6,35H32.8l4.6-24.1c0.1-0.7,0.8-1.2,1.5-1C39.4,9.9,39.9,10.3,40,10.9L40,10.9z"/>
<g>
	<circle id="prefix__b_2_" cx="38.9" cy="39.3" r="17.7"/>
</g>
<g class="st1">
	<circle id="prefix__b_1_" class="st2" cx="38.9" cy="39.3" r="17.7"/>
</g>
<g class="st1">
	<g class="st3">
		<circle id="prefix__d_2_" cx="38.9" cy="39.3" r="8.9"/>
	</g>
	<g class="st3">
		<circle id="prefix__d_1_" class="st4" cx="38.9" cy="39.3" r="8.9"/>
	</g>
</g>
<g transform="translate(1.967 7.743)">
	
		<image style="overflow:visible;opacity:0.5;" width="56" height="57" xlink:href="D110B7AECFF0E5C4.png"  transform="matrix(1 0 0 1 11.5291 8.7531)">
	</image>
	<g>
		<g>
			<g transform="matrix(1, 0, 0, 1, -10.59, -8.34)">
				<circle class="st5" cx="47.3" cy="40.1" r="19.2"/>
			</g>
			<g transform="matrix(1, 0, 0, 1, -10.59, -8.34)">
				<circle class="st6" cx="47.2" cy="39.7" r="10.5"/>
			</g>
		</g>
	</g>
</g>
</svg>
